<?xml version="1.0" encoding="utf-8"?>
<!-- Svg Vector Icons : http://www.onlinewebfonts.com/icon -->
<!DOCTYPE svg PUBLIC "-//W3C//DTD SVG 1.1//EN" "http://www.w3.org/Graphics/SVG/1.1/DTD/svg11.dtd">
<svg version="1.1" xmlns="http://www.w3.org/2000/svg" xmlns:xlink="http://www.w3.org/1999/xlink" x="0px" y="0px" viewBox="0 0 1000 1000" enable-background="new 0 0 1000 1000" xml:space="preserve">
<metadata> Svg Vector Icons : http://www.onlinewebfonts.com/icon </metadata>
<g><g><path d="M397.9,352.1c-60-34.4-120-68.8-179.9-103.2C250,186.3,289,123.7,352.9,61c7.9-8.4,18.3-13.9,31-16.5h13.6l9.6,0.4c31.5,5.3,62,46.9,77.8,70.4c12.5,21.3,24.4,42.9,35.8,64.6L397.9,352.1z M500.2,105.7c28.8,49.5,56,100.8,79.5,155.5L484.4,316l276.5,26.5L877.3,89.8l-96.2,55.4C754.9,92,721.5,47.7,670.9,25c-90.8,0.4-181.6,0.8-272.5,1.3C434.3,25,467.9,57.5,500.2,105.7z M711.5,466.2l1.1-1.5v3.8l71,151.2c28.7,1.1,57.5,1.2,86.2,0.9c29.8-2.5,85.2-9.2,102.4-37.7c0.7-1,1.1-2,1.7-3l7-12.6c0-5.6-0.8-11.4-2.5-16.7c-23.3-86.3-58.8-151-97.6-209.6c-59.4,35.4-118.8,70.8-178.2,106.3L711.5,466.2z M870.7,638.5c-57.3,1-115.2-0.7-174.5-6.9l-1.1-110L536.6,749.6L699.9,975l-1.1-111c59.2,3.3,114.1-4.2,158.8-37C901.7,747.4,945.8,668,990,588.7C973.4,620.7,928.5,633.8,870.7,638.5z M292.1,654.3c-12.4,23.9-24.1,48.2-35.4,72.9c-10.7,28-28.5,80.8-10.2,108.6c0.6,1,1.3,1.8,2,2.8l8.6,12.1c7.3,5.1,15.1,8.1,23.4,9.2c88,16.3,161.6,12.1,231.2,2.4c-6.4-68.8-12.7-137.7-19.2-206.6L292.1,654.3z M240,720.1c23.9-51.9,50.2-103.6,81.3-154.5l99.8,46.5L283.6,370.7L10,420.8l100.7,46.8c-28.5,52.2-45.4,104.8-34.9,159.3C128.3,701,180.9,775,233.6,849.1C211.8,820.4,219.3,774.3,240,720.1z"/></g><g></g><g></g><g></g><g></g><g></g><g></g><g></g><g></g><g></g><g></g><g></g><g></g><g></g><g></g><g></g></g>
</svg>